<svg viewBox="-768 -361 1536 722" width="1536" height="722" style="background-color: rgb(255, 255, 255);" xmlns="http://www.w3.org/2000/svg"><path d="M382.260634726642,-289.4432227287173L382.260634726642,146.58538599348677M382.260634726642,146.58538599348677L379.3249781615883,146.86495837969906M382.260634726642,146.58538599348677L518.8819049472924,290.9113935378M379.3249781615883,-289.163650342505L379.3249781615883,146.86495837969906M379.3249781615883,146.86495837969906L515.9462483822385,291.19096592401235M310.33704889121316,-282.5936992673148L310.33704889121316,153.43490945488924M310.33704889121316,153.43490945488924L304.2325226609611,154.01626389028308M310.33704889121316,153.43490945488924L446.95831911186343,297.7609169992025M304.2325226609611,-282.0123448319209L304.2325226609611,154.01626389028308M304.2325226609611,154.01626389028308L440.8537928816114,298.34227143459634" style="fill:none;stroke:rgb(0,0,0);stroke-width:1;stroke-linecap:round"></path><path d="M382.260634726642,146.58538599348674L379.3249781615883,146.86495837969903L379.3249781615883,-289.163650342505zM310.33704889121316,153.43490945488924L304.2325226609611,154.01626389028308L304.2325226609611,-282.0123448319209z" style="fill:rgb(238,238,238); fill-opacity: 0.29"></path><path d="M244.79460949746635,-227.32769601490565L244.79460949746635,136.0294779202644M244.79460949746635,136.0294779202644L232.58555703696223,137.19218679105217M244.79460949746635,136.0294779202644L359.38019097285047,257.0770971509788M232.58555703696223,-226.16498714411793L232.58555703696223,137.19218679105217M232.58555703696223,137.19218679105217L347.1711385123464,258.23980602176647" style="fill:none;stroke:rgb(0,0,0);stroke-width:1;stroke-linecap:round"></path><path d="M382.260634726642,-289.4432227287173L382.260634726642,146.58538599348674L379.3249781615883,-289.163650342505zM310.33704889121316,-282.59369926731483L310.33704889121316,153.43490945488924L304.2325226609611,-282.0123448319209zM244.79460949746635,136.02947792026444L232.5855570369622,137.19218679105214L232.5855570369622,-226.16498714411793zM515.9462483822387,291.1909659240123L379.3249781615883,146.86495837969903L382.260634726642,146.58538599348674z" style="fill:rgb(238,238,238); fill-opacity: 0.29"></path><path d="M382.260634726642,-289.4432227287173L379.3249781615883,-289.163650342505M382.260634726642,-289.4432227287173L518.8819049472924,-145.11721518440402M379.3249781615883,-289.163650342505L515.9462483822385,-144.83764279819172M173.14764389024174,-171.4803383287001L173.14764389024174,119.20540081943597M173.14764389024174,119.20540081943597L154.83406519948556,120.94946412561757M173.14764389024174,119.20540081943597L265.69753662035976,216.9746317365514M154.83406519948556,-169.73627502251844L154.83406519948556,120.94946412561757M154.83406519948556,120.94946412561757L247.38395792960353,218.71869504273306" style="fill:none;stroke:rgb(0,0,0);stroke-width:1;stroke-linecap:round"></path><path d="M440.8537928816114,298.34227143459634L304.2325226609611,154.01626389028308L310.33704889121316,153.43490945488924z" style="fill:rgb(238,238,238); fill-opacity: 0.29"></path><path d="M310.33704889121316,-282.5936992673148L304.2325226609611,-282.0123448319209M310.33704889121316,-282.5936992673148L446.95831911186343,-138.26769172300152M304.2325226609611,-282.0123448319209L440.8537928816114,-137.68633728760767" style="fill:none;stroke:rgb(0,0,0);stroke-width:1;stroke-linecap:round"></path><path d="M244.79460949746635,-227.32769601490568L244.79460949746635,136.02947792026444L232.5855570369622,-226.16498714411793zM518.8819049472925,290.9113935378L382.260634726642,146.58538599348674L382.260634726642,-289.4432227287173zM173.14764389024177,119.20540081943597L154.83406519948556,120.94946412561757L154.83406519948556,-169.73627502251847z" style="fill:rgb(238,238,238); fill-opacity: 0.29"></path><path d="M183.75152328976162,-17.92414901373474L248.98804445023356,-19.70728412560427M183.75152328976162,-0.4830039717977621L248.98804445023356,-19.70728412560427M189.04008858862557,5.103809223465979L248.98804445023356,-19.70728412560427M189.04008858862557,-12.33733581847099L248.98804445023356,-19.70728412560427M244.79460949746635,-227.32769601490565L232.58555703696223,-226.16498714411793M244.79460949746635,-227.32769601490565L359.38019097285047,-106.28007678419131" style="fill:none;stroke:rgb(0,0,0);stroke-width:1;stroke-linecap:round"></path><path d="M347.1711385123463,258.23980602176647L232.5855570369622,137.19218679105214L244.79460949746635,136.02947792026444zM446.9583191118635,297.76091699920244L310.33704889121316,153.43490945488924L310.33704889121316,-282.59369926731483z" style="fill:rgb(238,238,238); fill-opacity: 0.29"></path><path d="M232.58555703696223,-226.16498714411793L347.1711385123464,-105.11736791340356" style="fill:none;stroke:rgb(0,0,0);stroke-width:1;stroke-linecap:round"></path><path d="M173.14764389024177,-171.48033832870007L173.14764389024177,119.20540081943597L154.83406519948556,-169.73627502251847z" style="fill:rgb(238,238,238); fill-opacity: 0.29"></path><path d="M183.75151992804442,-0.4830029406688923L183.75151992804442,-17.924147289557055L248.98803926908386,-19.70728476762495zM189.04008522690827,5.1038102545948485L183.75151992804442,-0.4830029406688923L248.98803926908386,-19.70728476762495z" style="fill:rgb(255,255,255); fill-opacity: 0.4"></path><path d="M95.39615206953938,-115.05162620869808L95.39615206953938,102.96267815240392M95.39615206953938,102.96267815240392L70.97804714853113,105.2880958939794M95.39615206953938,102.96267815240392L165.91035605439117,177.45352075592047" style="fill:none;stroke:rgb(0,0,0);stroke-width:1;stroke-linecap:round"></path><path d="M183.75151992804442,-17.924147289557055L189.04008522690827,-12.337334094293315L248.98803926908386,-19.70728476762495z" style="fill:rgb(255,255,255); fill-opacity: 0.4"></path><path d="M183.75152328976162,-17.92414901373474L183.75152328976162,-0.4830039717977621M183.75152328976162,-0.4830039717977621L189.04008858862557,5.103809223465979M183.7515199532058,-17.924147291953258L183.7515199532058,-0.4830029430650948M183.7515199532058,-0.4830029430650948L165.43794126244958,1.2610603631165112M183.7515199532058,-0.4830029430650948L189.04008525206964,5.103810252198646" style="fill:none;stroke:rgb(0,0,0);stroke-width:1;stroke-linecap:round"></path><path d="M189.04008522690827,-12.337334094293315L189.04008522690827,5.1038102545948485L248.98803926908386,-19.70728476762495z" style="fill:rgb(255,255,255); fill-opacity: 0.4"></path><path d="M70.97804714853113,-112.72620846712263L70.97804714853113,105.2880958939794M70.97804714853113,105.2880958939794L141.49225113338292,179.77893849749594" style="fill:none;stroke:rgb(0,0,0);stroke-width:1;stroke-linecap:round"></path><path d="M379.3249781615883,-289.163650342505L379.3249781615883,146.86495837969903L515.9462483822387,-144.83764279819172z" style="fill:rgb(238,238,238); fill-opacity: 0.29"></path><path d="M165.43794126244958,-16.180083985771653L165.43794126244958,1.2610603631165112M165.43794126244958,1.2610603631165112L170.72650656131344,6.84787355838025" style="fill:none;stroke:rgb(0,0,0);stroke-width:1;stroke-linecap:round"></path><path d="M183.75151995320581,-0.4830029430650885L165.4379412624496,1.261060363116515L165.4379412624496,-16.18008398577165zM183.75151995320581,-17.92414729195325L183.75151995320581,-0.4830029430650885L165.4379412624496,-16.18008398577165z" style="fill:rgb(153,221,255); fill-opacity: 0.4"></path><path d="M183.75152328976162,-17.92414901373474L189.04008858862557,-12.33733581847099M183.7515199532058,-17.924147291953258L165.43794126244958,-16.180083985771653M183.7515199532058,-17.924147291953258L189.04008525206964,-12.337334096689515" style="fill:none;stroke:rgb(0,0,0);stroke-width:1;stroke-linecap:round"></path><path d="M189.04008525206967,5.103810252198643L183.75151995320581,-0.4830029430650885L183.75151995320581,-17.92414729195325z" style="fill:rgb(153,221,255); fill-opacity: 0.4"></path><path d="M183.75151992804442,-17.924147289557055L183.75151992804442,-0.4830029406688923L189.04008522690827,5.1038102545948485z" style="fill:rgb(255,255,255); fill-opacity: 0.4"></path><path d="M170.7265065613135,6.847873558380256L165.4379412624496,1.261060363116515L183.75151995320581,-0.4830029430650885z" style="fill:rgb(153,221,255); fill-opacity: 0.4"></path><path d="M165.43794126244958,-16.180083985771653L170.72650656131344,-10.59327079050791" style="fill:none;stroke:rgb(0,0,0);stroke-width:1;stroke-linecap:round"></path><path d="M189.04008525206967,5.103810252198643L170.7265065613135,6.847873558380256L183.75151995320581,-0.4830029430650885zM189.04008525206967,-12.33733409668952L183.75151995320581,-17.92414729195325L165.4379412624496,-16.18008398577165z" style="fill:rgb(153,221,255); fill-opacity: 0.4"></path><path d="M359.38019097285047,257.0770971509787L244.79460949746635,136.02947792026444L244.79460949746635,-227.32769601490568z" style="fill:rgb(238,238,238); fill-opacity: 0.29"></path><path d="M165.4379412624496,-16.18008398577165L165.4379412624496,1.261060363116515L170.7265065613135,-10.593270790507907zM189.04008525206967,-12.33733409668952L189.04008525206967,5.103810252198643L183.75151995320581,-17.92414729195325z" style="fill:rgb(153,221,255); fill-opacity: 0.4"></path><path d="M183.75151992804442,-17.924147289557055L189.04008522690827,5.1038102545948485L189.04008522690827,-12.337334094293315z" style="fill:rgb(255,255,255); fill-opacity: 0.4"></path><path d="M189.04008858862557,5.103809223465979L189.04008858862557,-12.33733581847099M170.72650656131344,6.84787355838025L189.04008525206964,5.103810252198646M189.04008525206964,-12.337334096689515L189.04008525206964,5.103810252198646" style="fill:none;stroke:rgb(0,0,0);stroke-width:1;stroke-linecap:round"></path><path d="M165.4379412624496,1.261060363116515L170.7265065613135,6.847873558380256L170.7265065613135,-10.593270790507907z" style="fill:rgb(153,221,255); fill-opacity: 0.4"></path><path d="M173.14764389024174,-171.4803383287001L154.83406519948556,-169.73627502251844M173.14764389024174,-171.4803383287001L265.69753662035976,-73.71110741158462" style="fill:none;stroke:rgb(0,0,0);stroke-width:1;stroke-linecap:round"></path><path d="M170.7265065613135,6.847873558380256L189.04008525206967,5.103810252198643L189.04008525206967,-12.33733409668952zM170.7265065613135,-10.593270790507907L189.04008525206967,-12.33733409668952L165.4379412624496,-16.18008398577165z" style="fill:rgb(153,221,255); fill-opacity: 0.4"></path><path d="M170.72650656131344,-10.59327079050791L170.72650656131344,6.84787355838025M170.72650656131344,-10.59327079050791L189.04008525206964,-12.337334096689515" style="fill:none;stroke:rgb(0,0,0);stroke-width:1;stroke-linecap:round"></path><path d="M247.38395792960353,218.71869504273303L154.83406519948556,120.94946412561757L173.14764389024177,119.20540081943597zM95.39615206953937,102.96267815240392L70.97804714853112,105.28809589397939L70.97804714853112,-112.72620846712263z" style="fill:rgb(238,238,238); fill-opacity: 0.29"></path><path d="M170.7265065613135,-10.593270790507907L170.7265065613135,6.847873558380256L189.04008525206967,-12.33733409668952z" style="fill:rgb(153,221,255); fill-opacity: 0.4"></path><path d="M154.83406519948556,-169.73627502251844L247.38395792960353,-71.96704410540302" style="fill:none;stroke:rgb(0,0,0);stroke-width:1;stroke-linecap:round"></path><path d="M304.2325226609611,-282.0123448319209L304.2325226609611,154.01626389028308L440.8537928816114,-137.68633728760767zM95.39615206953937,-115.05162620869808L95.39615206953937,102.96267815240392L70.97804714853112,-112.72620846712263zM518.8819049472925,290.9113935378L515.9462483822387,291.1909659240123L382.260634726642,146.58538599348674zM265.69753662035976,216.9746317365514L173.14764389024177,119.20540081943597L173.14764389024177,-171.48033832870007zM518.8819049472925,-145.11721518440402L382.260634726642,-289.4432227287173L379.3249781615883,-289.163650342505zM232.5855570369622,-226.16498714411793L232.5855570369622,137.19218679105214L347.1711385123463,-105.11736791340358z" style="fill:rgb(238,238,238); fill-opacity: 0.29"></path><path d="M95.39615206953938,-115.05162620869808L70.97804714853113,-112.72620846712263M95.39615206953938,-115.05162620869808L165.91035605439117,-40.56078360518154M11.540133335444061,-58.041559588244446L11.540133335444061,87.30130998582358M11.540133335444061,87.30130998582358L-18.9824964159861,90.20808202948241M11.540133335444061,87.30130998582358L60.01864857502965,138.51376427574118" style="fill:none;stroke:rgb(0,0,0);stroke-width:1;stroke-linecap:round"></path><path d="M446.9583191118635,297.76091699920244L440.8537928816114,298.34227143459634L310.33704889121316,153.43490945488924zM446.9583191118635,-138.26769172300158L310.33704889121316,-282.59369926731483L304.2325226609611,-282.0123448319209zM141.49225113338292,179.77893849749594L70.97804714853112,105.28809589397939L95.39615206953937,102.96267815240392z" style="fill:rgb(238,238,238); fill-opacity: 0.29"></path><path d="M70.97804714853113,-112.72620846712263L141.49225113338292,-38.23536586360606M-18.9824964159861,-55.13478754458559L-18.9824964159861,90.20808202948241M-18.9824964159861,90.20808202948241L29.496018823599492,141.42053631940004M314.80990616710517,121.93410569692608L390.86509696152655,154.42174742974763M314.80990616710517,139.37525004581425L390.86509696152655,154.42174742974763M320.0984706253742,144.96206235307793L390.86509696152655,154.42174742974763M320.0984706253742,127.52091800418978L390.86509696152655,154.42174742974763" style="fill:none;stroke:rgb(0,0,0);stroke-width:1;stroke-linecap:round"></path><path d="M154.83406519948556,-169.73627502251847L154.83406519948556,120.94946412561757L247.38395792960353,-71.96704410540302zM11.54013333544406,87.30130998582356L-18.982496415986105,90.20808202948241L-18.982496415986105,-55.13478754458559zM165.91035605439117,177.45352075592047L95.39615206953937,102.96267815240392L95.39615206953937,-115.05162620869808zM359.38019097285047,257.0770971509787L347.1711385123463,258.23980602176647L244.79460949746635,136.02947792026444zM359.38019097285047,-106.2800767841913L244.79460949746635,-227.32769601490568L232.5855570369622,-226.16498714411793z" style="fill:rgb(238,238,238); fill-opacity: 0.29"></path><path d="M314.8099042163526,139.37524726942024L314.8099042163526,121.93410292053211L390.86509570542,154.42174785147455z" style="fill:rgb(255,255,255); fill-opacity: 0.4"></path><path d="M314.80990616710517,121.93410569692608L314.80990616710517,139.37525004581425M314.80990616710517,139.37525004581425L320.0984706253742,144.96206235307793M314.8099042331269,121.93410291893464L314.8099042331269,139.3752472678228M314.8099042331269,139.3752472678228L302.6008517726228,140.53795613861053M314.8099042331269,139.3752472678228L320.09846953199076,144.96206046308654" style="fill:none;stroke:rgb(0,0,0);stroke-width:1;stroke-linecap:round"></path><path d="M320.0984695152165,144.962060464684L314.8099042163526,139.37524726942024L390.86509570542,154.42174785147455z" style="fill:rgb(255,255,255); fill-opacity: 0.4"></path><path d="M379.3249781615883,146.86495837969903L515.9462483822387,291.1909659240123L515.9462483822387,-144.83764279819172z" style="fill:rgb(238,238,238); fill-opacity: 0.29"></path><path d="M302.6008517726228,123.09681178972237L302.6008517726228,140.53795613861053M302.6008517726228,140.53795613861053L307.8894170714866,146.12476933387427" style="fill:none;stroke:rgb(0,0,0);stroke-width:1;stroke-linecap:round"></path><path d="M314.8099042331269,139.37524726782283L302.6008517726227,140.53795613861053L302.6008517726227,123.09681178972237zM314.8099042331269,121.93410291893466L314.8099042331269,139.37524726782283L302.6008517726227,123.09681178972237z" style="fill:rgb(153,221,255); fill-opacity: 0.4"></path><path d="M314.80990616710517,121.93410569692608L320.0984706253742,127.52091800418978M314.8099042331269,121.93410291893464L302.6008517726228,123.09681178972237M314.8099042331269,121.93410291893464L320.09846953199076,127.52091611419839" style="fill:none;stroke:rgb(0,0,0);stroke-width:1;stroke-linecap:round"></path><path d="M314.8099042163526,121.93410292053211L320.0984695152165,127.52091611579584L390.86509570542,154.42174785147455z" style="fill:rgb(255,255,255); fill-opacity: 0.4"></path><path d="M11.54013333544406,-58.041559588244446L11.54013333544406,87.30130998582356L-18.982496415986105,-55.13478754458559z" style="fill:rgb(238,238,238); fill-opacity: 0.29"></path><path d="M320.09846953199076,144.96206046308654L314.8099042331269,139.37524726782283L314.8099042331269,121.93410291893466z" style="fill:rgb(153,221,255); fill-opacity: 0.4"></path><path d="M314.8099042163526,121.93410292053211L314.8099042163526,139.37524726942024L320.0984695152165,144.962060464684z" style="fill:rgb(255,255,255); fill-opacity: 0.4"></path><path d="M307.8894170714866,146.12476933387427L302.6008517726227,140.53795613861053L314.8099042331269,139.37524726782283z" style="fill:rgb(153,221,255); fill-opacity: 0.4"></path><path d="M302.6008517726228,123.09681178972237L307.8894170714866,128.68362498498612" style="fill:none;stroke:rgb(0,0,0);stroke-width:1;stroke-linecap:round"></path><path d="M320.0984695152165,127.52091611579584L320.0984695152165,144.962060464684L390.86509570542,154.42174785147455z" style="fill:rgb(255,255,255); fill-opacity: 0.4"></path><path d="M320.09846953199076,144.96206046308654L307.8894170714866,146.12476933387427L314.8099042331269,139.37524726782283zM320.09846953199076,127.52091611419839L314.8099042331269,121.93410291893466L302.6008517726227,123.09681178972237zM302.6008517726227,123.09681178972237L302.6008517726227,140.53795613861053L307.8894170714866,128.6836249849861zM320.09846953199076,127.52091611419839L320.09846953199076,144.96206046308654L314.8099042331269,121.93410291893466z" style="fill:rgb(153,221,255); fill-opacity: 0.4"></path><path d="M314.8099042163526,121.93410292053211L320.0984695152165,144.962060464684L320.0984695152165,127.52091611579584z" style="fill:rgb(255,255,255); fill-opacity: 0.4"></path><path d="M302.6008517726227,140.53795613861053L307.8894170714866,146.12476933387427L307.8894170714866,128.6836249849861z" style="fill:rgb(153,221,255); fill-opacity: 0.4"></path><path d="M320.0984706253742,144.96206235307793L320.0984706253742,127.52091800418978M307.8894170714866,146.12476933387427L320.09846953199076,144.96206046308654M320.09846953199076,127.52091611419839L320.09846953199076,144.96206046308654" style="fill:none;stroke:rgb(0,0,0);stroke-width:1;stroke-linecap:round"></path><path d="M307.8894170714866,128.6836249849861L320.09846953199076,127.52091611419839L302.6008517726227,123.09681178972237z" style="fill:rgb(153,221,255); fill-opacity: 0.4"></path><path d="M-87.23468571040542,-9.761493992744477L-87.23468571040542,62.90994079428953M-87.23468571040542,62.90994079428953L-123.86184309191776,66.39806740665274M-87.23468571040542,62.90994079428953L-43.16330821987305,109.46671742148736" style="fill:none;stroke:rgb(0,0,0);stroke-width:1;stroke-linecap:round"></path><path d="M307.8894170714866,146.12476933387427L320.09846953199076,144.96206046308654L320.09846953199076,127.52091611419839z" style="fill:rgb(153,221,255); fill-opacity: 0.4"></path><path d="M307.8894170714866,128.68362498498612L307.8894170714866,146.12476933387427M11.540133335444061,-58.041559588244446L-18.9824964159861,-55.13478754458559M11.540133335444061,-58.041559588244446L60.01864857502965,-6.829105298326829" style="fill:none;stroke:rgb(0,0,0);stroke-width:1;stroke-linecap:round"></path><path d="M265.69753662035976,-73.71110741158462L173.14764389024177,-171.48033832870007L154.83406519948556,-169.73627502251847zM265.69753662035976,216.9746317365514L247.38395792960353,218.71869504273303L173.14764389024177,119.20540081943597z" style="fill:rgb(238,238,238); fill-opacity: 0.29"></path><path d="M307.8894170714866,128.68362498498612L320.09846953199076,127.52091611419839" style="fill:none;stroke:rgb(0,0,0);stroke-width:1;stroke-linecap:round"></path><path d="M307.8894170714866,128.6836249849861L307.8894170714866,146.12476933387427L320.09846953199076,127.52091611419839z" style="fill:rgb(153,221,255); fill-opacity: 0.4"></path><path d="M304.2325226609611,154.01626389028308L440.8537928816114,298.34227143459634L440.8537928816114,-137.68633728760767zM70.97804714853112,-112.72620846712263L70.97804714853112,105.28809589397939L141.49225113338292,-38.23536586360607zM29.496018823599485,141.42053631940004L-18.982496415986105,90.20808202948241L11.54013333544406,87.30130998582356z" style="fill:rgb(238,238,238); fill-opacity: 0.29"></path><path d="M-18.9824964159861,-55.13478754458559L29.496018823599492,-3.922333254667996M417.30550229967145,202.215160378855L490.40554251039254,212.4365375031587M417.30550229967145,219.65630472774313L490.40554251039254,212.4365375031587M422.5940675985353,225.24311792300688L490.40554251039254,212.4365375031587M422.5940675985353,207.8019735741187L490.40554251039254,212.4365375031587M-123.86184309191776,-6.27336738038127L-123.86184309191776,66.39806740665274M-123.86184309191776,66.39806740665274L-79.7904656013854,112.95484403385056" style="fill:none;stroke:rgb(0,0,0);stroke-width:1;stroke-linecap:round"></path><path d="M-87.23468571040542,62.90994079428953L-123.86184309191776,66.39806740665274L-123.86184309191776,-6.27336738038127z" style="fill:rgb(238,238,238); fill-opacity: 0.29"></path><path d="M417.3055138131559,219.65629898044708L417.3055138131559,202.21515463155893L490.4055540238769,212.4365356426154z" style="fill:rgb(255,255,255); fill-opacity: 0.4"></path><path d="M60.01864857502967,138.51376427574118L11.54013333544406,87.30130998582356L11.54013333544406,-58.041559588244446zM-87.23468571040542,-9.761493992744477L-87.23468571040542,62.90994079428953L-123.86184309191776,-6.27336738038127z" style="fill:rgb(238,238,238); fill-opacity: 0.29"></path><path d="M417.30550229967145,202.215160378855L417.30550229967145,219.65630472774313M417.30550229967145,219.65630472774313L422.5940675985353,225.24311792300688M417.3055138215431,202.21515463076022L417.3055138215431,219.6562989796484M417.3055138215431,219.6562989796484L411.20098759129104,220.23765341504227M417.3055138215431,219.6562989796484L422.59407912040695,225.2431121749121" style="fill:none;stroke:rgb(0,0,0);stroke-width:1;stroke-linecap:round"></path><path d="M232.5855570369622,137.19218679105214L347.1711385123463,258.23980602176647L347.1711385123463,-105.11736791340358z" style="fill:rgb(238,238,238); fill-opacity: 0.29"></path><path d="M411.20098759129104,202.79650906615413L411.20098759129104,220.23765341504227M411.20098759129104,220.23765341504227L416.48955289015487,225.82446661030602" style="fill:none;stroke:rgb(0,0,0);stroke-width:1;stroke-linecap:round"></path><path d="M422.5940791120198,225.24311217571082L417.3055138131559,219.65629898044708L490.4055540238769,212.4365356426154z" style="fill:rgb(255,255,255); fill-opacity: 0.4"></path><path d="M417.30551382154306,219.6562989796484L411.200987591291,220.23765341504225L411.200987591291,202.79650906615407z" style="fill:rgb(153,221,255); fill-opacity: 0.4"></path><path d="M-87.23468571040542,-9.761493992744477L-123.86184309191776,-6.27336738038127M-87.23468571040542,-9.761493992744477L-43.16330821987305,36.79528263445335" style="fill:none;stroke:rgb(0,0,0);stroke-width:1;stroke-linecap:round"></path><path d="M417.30551382154306,202.21515463076022L417.30551382154306,219.6562989796484L411.200987591291,202.79650906615407z" style="fill:rgb(153,221,255); fill-opacity: 0.4"></path><path d="M417.30550229967145,202.215160378855L422.5940675985353,207.8019735741187M417.3055138215431,202.21515463076022L411.20098759129104,202.79650906615413M417.3055138215431,202.21515463076022L422.59407912040695,207.80196782602397" style="fill:none;stroke:rgb(0,0,0);stroke-width:1;stroke-linecap:round"></path><path d="M417.3055138131559,202.21515463155893L422.5940791120198,207.80196782682265L490.4055540238769,212.4365356426154z" style="fill:rgb(255,255,255); fill-opacity: 0.4"></path><path d="M416.48955289015487,225.82446661030596L411.200987591291,220.23765341504225L417.30551382154306,219.6562989796484z" style="fill:rgb(153,221,255); fill-opacity: 0.4"></path><path d="M165.91035605439117,-40.56078360518154L95.39615206953937,-115.05162620869808L70.97804714853112,-112.72620846712263z" style="fill:rgb(238,238,238); fill-opacity: 0.29"></path><path d="M422.59407912040695,225.2431121749121L417.30551382154306,219.6562989796484L417.30551382154306,202.21515463076022z" style="fill:rgb(153,221,255); fill-opacity: 0.4"></path><path d="M417.3055138131559,202.21515463155893L417.3055138131559,219.65629898044708L422.5940791120198,225.24311217571082z" style="fill:rgb(255,255,255); fill-opacity: 0.4"></path><path d="M411.20098759129104,202.79650906615413L416.48955289015487,208.38332226141785" style="fill:none;stroke:rgb(0,0,0);stroke-width:1;stroke-linecap:round"></path><path d="M165.91035605439117,177.45352075592047L141.49225113338292,179.77893849749594L95.39615206953937,102.96267815240392z" style="fill:rgb(238,238,238); fill-opacity: 0.29"></path><path d="M422.5940791120198,207.80196782682265L422.5940791120198,225.24311217571082L490.4055540238769,212.4365356426154z" style="fill:rgb(255,255,255); fill-opacity: 0.4"></path><path d="M518.8819049472925,-145.11721518440402L518.8819049472925,290.9113935378L382.260634726642,-289.4432227287173z" style="fill:rgb(238,238,238); fill-opacity: 0.29"></path><path d="M411.200987591291,202.79650906615407L411.200987591291,220.23765341504225L416.48955289015487,208.38332226141782zM422.59407912040695,225.2431121749121L416.48955289015487,225.82446661030596L417.30551382154306,219.6562989796484zM422.59407912040695,207.80196782602397L417.30551382154306,202.21515463076022L411.200987591291,202.79650906615407z" style="fill:rgb(153,221,255); fill-opacity: 0.4"></path><path d="M-123.86184309191776,-6.27336738038127L-79.7904656013854,40.28340924681656" style="fill:none;stroke:rgb(0,0,0);stroke-width:1;stroke-linecap:round"></path><path d="M411.200987591291,220.23765341504225L416.48955289015487,225.82446661030596L416.48955289015487,208.38332226141782zM422.59407912040695,207.80196782602397L422.59407912040695,225.2431121749121L417.30551382154306,202.21515463076022z" style="fill:rgb(153,221,255); fill-opacity: 0.4"></path><path d="M417.3055138131559,202.21515463155893L422.5940791120198,225.24311217571082L422.5940791120198,207.80196782682265z" style="fill:rgb(255,255,255); fill-opacity: 0.4"></path><path d="M422.5940675985353,225.24311792300688L422.5940675985353,207.8019735741187M416.48955289015487,225.82446661030602L422.59407912040695,225.2431121749121M422.59407912040695,207.80196782602397L422.59407912040695,225.2431121749121" style="fill:none;stroke:rgb(0,0,0);stroke-width:1;stroke-linecap:round"></path><path d="M416.48955289015487,208.38332226141782L422.59407912040695,207.80196782602397L411.200987591291,202.79650906615407z" style="fill:rgb(153,221,255); fill-opacity: 0.4"></path><path d="M154.83406519948556,120.94946412561757L247.38395792960353,218.71869504273303L247.38395792960353,-71.96704410540302z" style="fill:rgb(238,238,238); fill-opacity: 0.29"></path><path d="M416.48955289015487,208.38332226141785L416.48955289015487,225.82446661030602M-181.54623765290765,52.82086857032161L-115.79764238665658,65.90148725452997M-181.54623765290765,58.634583180022126L-115.79764238665658,65.90148725452997M-179.78338255328634,60.49685424511004L-115.79764238665658,65.90148725452997M-179.78338255328634,54.68313963540952L-115.79764238665658,65.90148725452997" style="fill:none;stroke:rgb(0,0,0);stroke-width:1;stroke-linecap:round"></path><path d="M416.48955289015487,225.82446661030596L422.59407912040695,225.2431121749121L422.59407912040695,207.80196782602397zM416.48955289015487,208.38332226141782L416.48955289015487,225.82446661030596L422.59407912040695,207.80196782602397z" style="fill:rgb(153,221,255); fill-opacity: 0.4"></path><path d="M416.48955289015487,208.38332226141785L422.59407912040695,207.80196782602397" style="fill:none;stroke:rgb(0,0,0);stroke-width:1;stroke-linecap:round"></path><path d="M-18.982496415986105,-55.13478754458559L-18.982496415986105,90.20808202948241L29.496018823599485,-3.922333254667996zM446.9583191118635,-138.26769172300158L446.9583191118635,297.76091699920244L310.33704889121316,-282.59369926731483zM-79.7904656013854,112.95484403385056L-123.86184309191776,66.39806740665274L-87.23468571040542,62.90994079428953zM-43.16330821987305,109.46671742148736L-87.23468571040542,62.90994079428953L-87.23468571040542,-9.761493992744477zM60.01864857502967,-6.829105298326829L11.54013333544406,-58.041559588244446L-18.982496415986105,-55.13478754458559zM60.01864857502967,138.51376427574118L29.496018823599485,141.42053631940004L11.54013333544406,87.30130998582356zM359.38019097285047,-106.2800767841913L359.38019097285047,257.0770971509787L244.79460949746635,-227.32769601490568zM70.97804714853112,105.28809589397939L141.49225113338292,179.77893849749594L141.49225113338292,-38.23536586360607z" style="fill:rgb(238,238,238); fill-opacity: 0.29"></path><path d="M-61.83839274473915,70.50909852769651L9.922995598186967,95.29888175377326M-61.83839274473915,79.2296707021406L9.922995598186967,95.29888175377326M-60.07553764511785,81.0919417672285L9.922995598186967,95.29888175377326M-60.07553764511785,72.37136959278442L9.922995598186967,95.29888175377326M-185.50332574598303,31.54915570653527L-185.50332574598303,60.61772962134887M-185.50332574598303,60.61772962134887L-228.23500795791728,64.68721053579546M-185.50332574598303,60.61772962134887L-159.0604992516636,88.55179559766756" style="fill:none;stroke:rgb(0,0,0);stroke-width:1;stroke-linecap:round"></path><path d="M265.69753662035976,-73.71110741158462L265.69753662035976,216.9746317365514L173.14764389024177,-171.48033832870007z" style="fill:rgb(238,238,238); fill-opacity: 0.29"></path><path d="M-181.54623307180364,58.634583325740316L-181.54623307180364,52.82086854277759L-115.7976437369538,65.90148694694268zM-179.78337797218234,60.49685439082823L-181.54623307180364,58.634583325740316L-115.7976437369538,65.90148694694268zM-181.54623307180364,52.82086854277759L-179.78337797218234,54.68313960786551L-115.7976437369538,65.90148694694268zM-179.78337797218234,54.68313960786551L-179.78337797218234,60.49685439082823L-115.7976437369538,65.90148694694268z" style="fill:rgb(255,255,255); fill-opacity: 0.4"></path><path d="M-123.86184309191776,-6.27336738038127L-123.86184309191776,66.39806740665274L-79.7904656013854,40.28340924681656zM-43.16330821987305,36.79528263445335L-87.23468571040542,-9.761493992744477L-123.86184309191776,-6.27336738038127zM165.91035605439117,-40.56078360518154L165.91035605439117,177.45352075592047L95.39615206953937,-115.05162620869808z" style="fill:rgb(238,238,238); fill-opacity: 0.29"></path><path d="M-185.50332574598303,31.54915570653527L-228.23500795791728,35.61863662098185M-185.50332574598303,31.54915570653527L-159.0604992516636,59.483221682853966" style="fill:none;stroke:rgb(0,0,0);stroke-width:1;stroke-linecap:round"></path><path d="M-185.50332574598298,31.54915570653527L-185.50332574598298,60.61772962134887L-228.23500795791728,35.61863662098185zM-185.50332574598298,60.61772962134887L-228.23500795791728,64.68721053579546L-228.23500795791728,35.61863662098185z" style="fill:rgb(238,238,238); fill-opacity: 0.29"></path><path d="M-61.83839132106689,79.22967056809689L-61.83839132106689,70.50909839365282L9.922997114453482,95.29888437363921z" style="fill:rgb(255,255,255); fill-opacity: 0.4"></path><path d="M515.9462483822385,291.19096592401235L518.8819049472924,290.9113935378M518.8819049472924,-145.11721518440402L518.8819049472924,290.9113935378M-228.23500795791728,35.61863662098185L-228.23500795791728,64.68721053579546M-228.23500795791728,64.68721053579546L-201.7921814635979,92.62127651211415" style="fill:none;stroke:rgb(0,0,0);stroke-width:1;stroke-linecap:round"></path><path d="M-60.07553622144559,81.09194163318482L-61.83839132106689,79.22967056809689L9.922997114453482,95.29888437363921z" style="fill:rgb(255,255,255); fill-opacity: 0.4"></path><path d="M515.9462483822385,-144.83764279819172L515.9462483822385,291.19096592401235" style="fill:none;stroke:rgb(0,0,0);stroke-width:1;stroke-linecap:round"></path><path d="M-18.982496415986105,90.20808202948241L29.496018823599485,141.42053631940004L29.496018823599485,-3.922333254667996z" style="fill:rgb(238,238,238); fill-opacity: 0.29"></path><path d="M-61.83839132106689,70.50909839365282L-60.07553622144559,72.37136945874073L9.922997114453482,95.29888437363921z" style="fill:rgb(255,255,255); fill-opacity: 0.4"></path><path d="M-181.54623371300886,52.82086860384171L-181.54623371300886,58.63458338680443M-181.54623371300886,58.63458338680443L-224.27791592494316,62.704064301251M-181.54623371300886,58.63458338680443L-179.78337861338758,60.49685445189235M-181.54623765290765,52.82086857032161L-181.54623765290765,58.634583180022126M-181.54623765290765,58.634583180022126L-179.78338255328634,60.49685424511004" style="fill:none;stroke:rgb(0,0,0);stroke-width:1;stroke-linecap:round"></path><path d="M515.9462483822387,-144.83764279819172L518.8819049472925,-145.11721518440402L379.3249781615883,-289.163650342505z" style="fill:rgb(238,238,238); fill-opacity: 0.29"></path><path d="M-60.07553622144559,72.37136945874073L-60.07553622144559,81.09194163318482L9.922997114453482,95.29888437363921z" style="fill:rgb(255,255,255); fill-opacity: 0.4"></path><path d="M-181.54623765290765,52.82086857032161L-179.78338255328634,54.68313963540952M-181.54623371300886,52.82086860384171L-224.27791592494316,56.89034951828828M-181.54623371300886,52.82086860384171L-179.78337861338758,54.68313966892963" style="fill:none;stroke:rgb(0,0,0);stroke-width:1;stroke-linecap:round"></path><path d="M-181.54623307180364,52.82086854277759L-181.54623307180364,58.634583325740316L-179.78337797218234,60.49685439082823z" style="fill:rgb(255,255,255); fill-opacity: 0.4"></path><path d="M-179.78337861338758,60.496854451892354L-181.54623371300886,58.63458338680443L-181.54623371300886,52.82086860384171z" style="fill:rgb(153,221,255); fill-opacity: 0.4"></path><path d="M-61.8383912707442,70.50909838886042L-61.8383912707442,79.2296705633045M-61.8383912707442,79.2296705633045L-98.46554865225656,82.71779717566771M-61.8383912707442,79.2296705633045L-60.0755361711229,81.0919416283924M-61.83839274473915,70.50909852769651L-61.83839274473915,79.2296707021406M-61.83839274473915,79.2296707021406L-60.07553764511785,81.0919417672285" style="fill:none;stroke:rgb(0,0,0);stroke-width:1;stroke-linecap:round"></path><path d="M-181.54623307180364,52.82086854277759L-179.78337797218234,60.49685439082823L-179.78337797218234,54.68313960786551z" style="fill:rgb(255,255,255); fill-opacity: 0.4"></path><path d="M-179.78337861338758,54.68313966892963L-179.78337861338758,60.496854451892354L-181.54623371300886,52.82086860384171zM-181.54623371300886,52.82086860384171L-181.54623371300886,58.63458338680443L-224.2779159249432,56.89034951828829z" style="fill:rgb(153,221,255); fill-opacity: 0.4"></path><path d="M-222.51506082532188,64.56633536633892L-179.78337861338758,60.49685445189235M-179.78337861338758,54.68313966892963L-179.78337861338758,60.49685445189235M-179.78338255328634,60.49685424511004L-179.78338255328634,54.68313963540952M-301.63007562693804,44.800053574018484L-301.63007562693804,59.33434053142529M-301.63007562693804,59.33434053142529L-304.56573219199174,59.613912917637585M-301.63007562693804,59.33434053142529L-266.37297363451216,96.57976183318357" style="fill:none;stroke:rgb(0,0,0);stroke-width:1;stroke-linecap:round"></path><path d="M-60.07553617112289,81.0919416283924L-61.83839127074418,79.2296705633045L-61.83839127074418,70.50909838886042z" style="fill:rgb(153,221,255); fill-opacity: 0.4"></path><path d="M-61.83839132106689,70.50909839365282L-61.83839132106689,79.22967056809689L-60.07553622144559,81.09194163318482z" style="fill:rgb(255,255,255); fill-opacity: 0.4"></path><path d="M60.01864857502967,-6.829105298326829L60.01864857502967,138.51376427574118L11.54013333544406,-58.041559588244446z" style="fill:rgb(238,238,238); fill-opacity: 0.29"></path><path d="M-61.8383912707442,70.50909838886042L-98.46554865225656,73.99722500122363M-61.8383912707442,70.50909838886042L-60.0755361711229,72.37136945394833M-61.83839274473915,70.50909852769651L-60.07553764511785,72.37136959278442M-304.56573219199174,45.07962596023078L-304.56573219199174,59.613912917637585M-304.56573219199174,59.613912917637585L-269.30863019956587,96.85933421939586M-228.23500795791728,35.61863662098185L-201.7921814635979,63.552702597300545M-222.51506082532188,58.7526205833762L-179.78337861338758,54.68313966892963" style="fill:none;stroke:rgb(0,0,0);stroke-width:1;stroke-linecap:round"></path><path d="M-179.78337861338758,60.496854451892354L-222.51506082532188,64.56633536633893L-181.54623371300886,58.63458338680443zM-179.78337861338758,54.68313966892963L-181.54623371300886,52.82086860384171L-224.2779159249432,56.89034951828829z" style="fill:rgb(153,221,255); fill-opacity: 0.4"></path><path d="M-301.63007562693804,59.33434053142529L-304.56573219199174,59.613912917637585L-304.56573219199174,45.07962596023078z" style="fill:rgb(238,238,238); fill-opacity: 0.29"></path><path d="M-181.54623371300886,58.63458338680443L-224.2779159249432,62.704064301251016L-224.2779159249432,56.89034951828829zM-61.83839127074418,70.50909838886042L-61.83839127074418,79.2296705633045L-98.46554865225656,73.99722500122363z" style="fill:rgb(153,221,255); fill-opacity: 0.4"></path><path d="M-96.70269355263525,84.58006824075562L-60.0755361711229,81.0919416283924M-60.0755361711229,72.37136945394833L-60.0755361711229,81.0919416283924M-60.07553764511785,81.0919417672285L-60.07553764511785,72.37136959278442" style="fill:none;stroke:rgb(0,0,0);stroke-width:1;stroke-linecap:round"></path><path d="M-60.07553617112289,72.37136945394833L-60.07553617112289,81.0919416283924L-61.83839127074418,70.50909838886042z" style="fill:rgb(153,221,255); fill-opacity: 0.4"></path><path d="M-61.83839132106689,70.50909839365282L-60.07553622144559,81.09194163318482L-60.07553622144559,72.37136945874073z" style="fill:rgb(255,255,255); fill-opacity: 0.4"></path><path d="M-301.63007562693804,44.800053574018484L-301.63007562693804,59.33434053142529L-304.56573219199174,45.07962596023078z" style="fill:rgb(238,238,238); fill-opacity: 0.29"></path><path d="M-222.51506082532188,64.56633536633893L-224.2779159249432,62.704064301251016L-181.54623371300886,58.63458338680443zM-222.51506082532188,64.56633536633893L-179.78337861338758,60.496854451892354L-179.78337861338758,54.68313966892963z" style="fill:rgb(153,221,255); fill-opacity: 0.4"></path><path d="M-301.63007562693804,44.800053574018484L-304.56573219199174,45.07962596023078M-301.63007562693804,44.800053574018484L-266.37297363451216,82.04547487577676" style="fill:none;stroke:rgb(0,0,0);stroke-width:1;stroke-linecap:round"></path><path d="M-60.07553617112289,81.0919416283924L-96.70269355263525,84.58006824075562L-61.83839127074418,79.2296705633045z" style="fill:rgb(153,221,255); fill-opacity: 0.4"></path><path d="M43.89641230010338,4.715097790048096L43.89641230010338,10.528812573010818M43.89641230010338,10.528812573010818L13.37378254867321,13.43558461666966M43.89641230010338,10.528812573010818L45.65926739972467,12.39108363809873M43.89641039082535,4.715097340983849L43.89641039082535,10.52881212394657M43.89641039082535,10.52881212394657L45.65926549044665,12.391083189034484M43.89641039082535,10.52881212394657L119.32380518383806,-18.549132371107152M-304.56573219199174,45.07962596023078L-269.30863019956587,82.32504726198906" style="fill:none;stroke:rgb(0,0,0);stroke-width:1;stroke-linecap:round"></path><path d="M-61.83839127074418,79.2296705633045L-98.46554865225656,82.71779717566771L-98.46554865225656,73.99722500122363zM-60.07553617112289,72.37136945394833L-61.83839127074418,70.50909838886042L-98.46554865225656,73.99722500122363z" style="fill:rgb(153,221,255); fill-opacity: 0.4"></path><path d="M-96.70269355263525,75.85949606631155L-60.0755361711229,72.37136945394833M-224.27791592494316,56.89034951828828L-224.27791592494316,62.704064301251M-224.27791592494316,62.704064301251L-222.51506082532188,64.56633536633892" style="fill:none;stroke:rgb(0,0,0);stroke-width:1;stroke-linecap:round"></path><path d="M-96.70269355263525,84.58006824075562L-98.46554865225656,82.71779717566771L-61.83839127074418,79.2296705633045z" style="fill:rgb(153,221,255); fill-opacity: 0.4"></path><path d="M43.89641230010338,4.715097790048096L13.37378254867321,7.6218698337069375M43.89641230010338,4.715097790048096L45.65926739972467,6.57736885513601M43.89641039082535,4.715097340983849L45.65926549044665,6.577368406071763M43.89641039082535,4.715097340983849L119.32380518383806,-18.549132371107152" style="fill:none;stroke:rgb(0,0,0);stroke-width:1;stroke-linecap:round"></path><path d="M43.896412958082855,10.528812510349228L43.896412958082855,4.715097727386508L119.32380211221775,-18.549132163461003z" style="fill:rgb(255,255,255); fill-opacity: 0.4"></path><path d="M-96.70269355263525,84.58006824075562L-60.07553617112289,81.0919416283924L-60.07553617112289,72.37136945394833z" style="fill:rgb(153,221,255); fill-opacity: 0.4"></path><path d="M43.896412958082855,4.715097727386508L43.896412958082855,10.528812510349228L45.65926805770415,12.391083575437142z" style="fill:rgb(255,255,255); fill-opacity: 0.4"></path><path d="M45.65926739972467,12.39108363809873L43.89641230010337,10.528812573010816L43.89641230010337,4.7150977900480955zM-222.51506082532188,58.752620583376206L-179.78337861338758,54.68313966892963L-224.2779159249432,56.89034951828829z" style="fill:rgb(153,221,255); fill-opacity: 0.4"></path><path d="M-98.46554865225656,73.99722500122363L-98.46554865225656,82.71779717566771M-98.46554865225656,82.71779717566771L-96.70269355263525,84.58006824075562M-224.27791592494316,56.89034951828828L-222.51506082532188,58.7526205833762M150.49871901187046,16.76894169486099L150.49871901187046,34.21008604374915M150.49871901187046,34.21008604374915L126.08061409086223,36.53550378532463M150.49871901187046,34.21008604374915L155.78728431073438,39.796899239012895M150.49871659526895,16.768942003514834L150.49871659526895,34.21008635240299M150.49871659526895,34.21008635240299L155.78728189413283,39.79689954766673M150.49871659526895,34.21008635240299L230.62680194383114,18.327142529646306" style="fill:none;stroke:rgb(0,0,0);stroke-width:1;stroke-linecap:round"></path><path d="M45.65926805770415,12.391083575437142L43.896412958082855,10.528812510349228L119.32380211221775,-18.549132163461003z" style="fill:rgb(255,255,255); fill-opacity: 0.4"></path><path d="M-222.51506082532188,58.752620583376206L-222.51506082532188,64.56633536633893L-179.78337861338758,54.68313966892963zM-224.2779159249432,56.89034951828829L-224.2779159249432,62.704064301251016L-222.51506082532188,58.752620583376206zM43.89641230010337,4.7150977900480955L43.89641230010337,10.528812573010816L13.37378254867321,7.621869833706938z" style="fill:rgb(153,221,255); fill-opacity: 0.4"></path><path d="M43.896412958082855,4.715097727386508L45.65926805770415,6.577368792474421L119.32380211221775,-18.549132163461003z" style="fill:rgb(255,255,255); fill-opacity: 0.4"></path><path d="M-43.16330821987305,109.46671742148736L-79.7904656013854,112.95484403385056L-87.23468571040542,62.90994079428953z" style="fill:rgb(238,238,238); fill-opacity: 0.29"></path><path d="M45.65926549044665,12.391083189034484L119.32380518383806,-18.549132371107152M45.65926549044665,6.577368406071763L119.32380518383806,-18.549132371107152" style="fill:none;stroke:rgb(0,0,0);stroke-width:1;stroke-linecap:round"></path><path d="M43.896412958082855,4.715097727386508L45.65926805770415,12.391083575437142L45.65926805770415,6.577368792474421z" style="fill:rgb(255,255,255); fill-opacity: 0.4"></path><path d="M45.65926739972467,6.577368855136009L45.65926739972467,12.39108363809873L43.89641230010337,4.7150977900480955z" style="fill:rgb(153,221,255); fill-opacity: 0.4"></path><path d="M-159.06049925166357,88.55179559766756L-185.50332574598298,60.61772962134887L-185.50332574598298,31.54915570653527z" style="fill:rgb(238,238,238); fill-opacity: 0.29"></path><path d="M-224.2779159249432,62.704064301251016L-222.51506082532188,64.56633536633893L-222.51506082532188,58.752620583376206z" style="fill:rgb(153,221,255); fill-opacity: 0.4"></path><path d="M15.136637648294503,15.297855681757573L45.65926739972467,12.39108363809873M45.65926739972467,6.57736885513601L45.65926739972467,12.39108363809873M45.65926549044665,12.391083189034484L45.65926549044665,6.577368406071763M-98.46554865225656,73.99722500122363L-96.70269355263525,75.85949606631155" style="fill:none;stroke:rgb(0,0,0);stroke-width:1;stroke-linecap:round"></path><path d="M-96.70269355263525,75.85949606631155L-60.07553617112289,72.37136945394833L-98.46554865225656,73.99722500122363z" style="fill:rgb(153,221,255); fill-opacity: 0.4"></path><path d="M347.1711385123464,258.23980602176647L359.38019097285047,257.0770971509788M359.38019097285047,-106.28007678419131L359.38019097285047,257.0770971509788" style="fill:none;stroke:rgb(0,0,0);stroke-width:1;stroke-linecap:round"></path><path d="M45.65926805770415,6.577368792474421L45.65926805770415,12.391083575437142L119.32380211221775,-18.549132163461003z" style="fill:rgb(255,255,255); fill-opacity: 0.4"></path><path d="M43.89641230010337,10.528812573010816L13.37378254867321,13.43558461666966L13.37378254867321,7.621869833706938z" style="fill:rgb(153,221,255); fill-opacity: 0.4"></path><path d="M-222.51506082532188,58.7526205833762L-222.51506082532188,64.56633536633892" style="fill:none;stroke:rgb(0,0,0);stroke-width:1;stroke-linecap:round"></path><path d="M-98.46554865225656,73.99722500122363L-98.46554865225656,82.71779717566771L-96.70269355263525,75.85949606631155zM45.65926739972467,12.39108363809873L15.136637648294498,15.297855681757573L43.89641230010337,10.528812573010816zM45.65926739972467,6.577368855136009L43.89641230010337,4.7150977900480955L13.37378254867321,7.621869833706938zM-96.70269355263525,75.85949606631155L-96.70269355263525,84.58006824075562L-60.07553617112289,72.37136945394833z" style="fill:rgb(153,221,255); fill-opacity: 0.4"></path><path d="M440.8537928816114,298.34227143459634L446.95831911186343,297.7609169992025M446.95831911186343,-138.26769172300152L446.95831911186343,297.7609169992025M247.38395792960353,218.71869504273306L265.69753662035976,216.9746317365514M265.69753662035976,-73.71110741158462L265.69753662035976,216.9746317365514" style="fill:none;stroke:rgb(0,0,0);stroke-width:1;stroke-linecap:round"></path><path d="M-98.46554865225656,82.71779717566771L-96.70269355263525,84.58006824075562L-96.70269355263525,75.85949606631155z" style="fill:rgb(153,221,255); fill-opacity: 0.4"></path><path d="M15.136637648294503,9.48414089879485L45.65926739972467,6.57736885513601" style="fill:none;stroke:rgb(0,0,0);stroke-width:1;stroke-linecap:round"></path><path d="M15.136637648294498,15.297855681757573L13.37378254867321,13.43558461666966L43.89641230010337,10.528812573010816z" style="fill:rgb(153,221,255); fill-opacity: 0.4"></path><path d="M-96.70269355263525,75.85949606631155L-96.70269355263525,84.58006824075562M440.8537928816114,-137.68633728760767L440.8537928816114,298.34227143459634M13.37378254867321,7.6218698337069375L13.37378254867321,13.43558461666966M13.37378254867321,13.43558461666966L15.136637648294503,15.297855681757573M150.49871901187046,16.76894169486099L126.08061409086223,19.09435943643647M150.49871901187046,16.76894169486099L155.78728431073438,22.355754890124732M150.49871659526895,16.768942003514834L155.78728189413283,22.35575519877857M150.49871659526895,16.768942003514834L230.62680194383114,18.327142529646306" style="fill:none;stroke:rgb(0,0,0);stroke-width:1;stroke-linecap:round"></path><path d="M15.136637648294498,15.297855681757573L45.65926739972467,12.39108363809873L45.65926739972467,6.577368855136009z" style="fill:rgb(153,221,255); fill-opacity: 0.4"></path><path d="M347.1711385123463,-105.11736791340358L359.38019097285047,-106.2800767841913L232.5855570369622,-226.16498714411793z" style="fill:rgb(238,238,238); fill-opacity: 0.29"></path><path d="M347.1711385123464,-105.11736791340356L347.1711385123464,258.23980602176647" style="fill:none;stroke:rgb(0,0,0);stroke-width:1;stroke-linecap:round"></path><path d="M150.49871901187043,16.768941694860985L150.49871901187043,34.21008604374915L126.08061409086221,19.094359436436463z" style="fill:rgb(153,221,255); fill-opacity: 0.4"></path><path d="M141.49225113338292,179.77893849749594L165.91035605439117,177.45352075592047M165.91035605439117,-40.56078360518154L165.91035605439117,177.45352075592047" style="fill:none;stroke:rgb(0,0,0);stroke-width:1;stroke-linecap:round"></path><path d="M150.49871901187043,34.21008604374915L126.08061409086221,36.53550378532463L126.08061409086221,19.094359436436463z" style="fill:rgb(153,221,255); fill-opacity: 0.4"></path><path d="M440.8537928816114,-137.68633728760767L446.9583191118635,-138.26769172300158L304.2325226609611,-282.0123448319209zM247.38395792960353,-71.96704410540302L265.69753662035976,-73.71110741158462L154.83406519948556,-169.73627502251847zM-201.7921814635979,92.62127651211415L-228.23500795791728,64.68721053579546L-185.50332574598298,60.61772962134887z" style="fill:rgb(238,238,238); fill-opacity: 0.29"></path><path d="M126.08061409086223,19.09435943643647L126.08061409086223,36.53550378532463M126.08061409086223,36.53550378532463L131.36917938972613,42.122316980588366M13.37378254867321,7.6218698337069375L15.136637648294503,9.48414089879485" style="fill:none;stroke:rgb(0,0,0);stroke-width:1;stroke-linecap:round"></path><path d="M155.78728431073432,39.79689923901289L150.49871901187043,34.21008604374915L150.49871901187043,16.768941694860985z" style="fill:rgb(153,221,255); fill-opacity: 0.4"></path><path d="M150.49871897832196,16.768941698055922L150.49871897832196,34.210086046944085L155.78728427718585,39.79689924220783zM150.49871897832196,34.210086046944085L150.49871897832196,16.768941698055922L230.62680531383592,18.327142774988417z" style="fill:rgb(255,255,255); fill-opacity: 0.4"></path><path d="M15.136637648294498,9.484140898794852L45.65926739972467,6.577368855136009L13.37378254867321,7.621869833706938zM13.37378254867321,7.621869833706938L13.37378254867321,13.43558461666966L15.136637648294498,9.484140898794852z" style="fill:rgb(153,221,255); fill-opacity: 0.4"></path><path d="M247.38395792960353,-71.96704410540302L247.38395792960353,218.71869504273306" style="fill:none;stroke:rgb(0,0,0);stroke-width:1;stroke-linecap:round"></path><path d="M15.136637648294498,9.484140898794852L15.136637648294498,15.297855681757573L45.65926739972467,6.577368855136009z" style="fill:rgb(153,221,255); fill-opacity: 0.4"></path><path d="M141.49225113338292,-38.23536586360607L165.91035605439117,-40.56078360518154L70.97804714853112,-112.72620846712263z" style="fill:rgb(238,238,238); fill-opacity: 0.29"></path><path d="M13.37378254867321,13.43558461666966L15.136637648294498,15.297855681757573L15.136637648294498,9.484140898794852zM131.3691793897261,42.122316980588366L126.08061409086221,36.53550378532463L150.49871901187043,34.21008604374915z" style="fill:rgb(153,221,255); fill-opacity: 0.4"></path><path d="M29.496018823599492,141.42053631940004L60.01864857502965,138.51376427574118M60.01864857502965,-6.829105298326829L60.01864857502965,138.51376427574118M15.136637648294503,9.48414089879485L15.136637648294503,15.297855681757573" style="fill:none;stroke:rgb(0,0,0);stroke-width:1;stroke-linecap:round"></path><path d="M155.78728427718585,39.79689924220783L150.49871897832196,34.210086046944085L230.62680531383592,18.327142774988417z" style="fill:rgb(255,255,255); fill-opacity: 0.4"></path><path d="M-159.06049925166357,59.483221682853966L-185.50332574598298,31.54915570653527L-228.23500795791728,35.61863662098185z" style="fill:rgb(238,238,238); fill-opacity: 0.29"></path><path d="M126.08061409086223,19.09435943643647L131.36917938972613,24.68117263170021M141.49225113338292,-38.23536586360606L141.49225113338292,179.77893849749594" style="fill:none;stroke:rgb(0,0,0);stroke-width:1;stroke-linecap:round"></path><path d="M155.78728431073432,39.79689923901289L131.3691793897261,42.122316980588366L150.49871901187043,34.21008604374915zM155.78728431073432,22.355754890124725L150.49871901187043,16.768941694860985L126.08061409086221,19.094359436436463z" style="fill:rgb(153,221,255); fill-opacity: 0.4"></path><path d="M29.496018823599485,-3.922333254667996L60.01864857502967,-6.829105298326829L-18.982496415986105,-55.13478754458559zM-43.16330821987305,36.79528263445335L-43.16330821987305,109.46671742148736L-87.23468571040542,-9.761493992744477z" style="fill:rgb(238,238,238); fill-opacity: 0.29"></path><path d="M155.78728431073432,22.355754890124725L155.78728431073432,39.79689923901289L150.49871901187043,16.768941694860985z" style="fill:rgb(153,221,255); fill-opacity: 0.4"></path><path d="M150.49871897832196,16.768941698055922L155.78728427718585,39.79689924220783L155.78728427718585,22.355754893319663zM150.49871897832196,16.768941698055922L155.78728427718585,22.355754893319663L230.62680531383592,18.327142774988417z" style="fill:rgb(255,255,255); fill-opacity: 0.4"></path><path d="M126.08061409086221,19.094359436436463L126.08061409086221,36.53550378532463L131.3691793897261,24.681172631700203z" style="fill:rgb(153,221,255); fill-opacity: 0.4"></path><path d="M-123.86184309191776,66.39806740665274L-79.7904656013854,112.95484403385056L-79.7904656013854,40.28340924681656z" style="fill:rgb(238,238,238); fill-opacity: 0.29"></path><path d="M131.36917938972613,42.122316980588366L155.78728431073438,39.796899239012895M155.78728431073438,22.355754890124732L155.78728431073438,39.796899239012895M155.78728189413283,39.79689954766673L155.78728189413283,22.35575519877857M155.78728189413283,39.79689954766673L230.62680194383114,18.327142529646306M155.78728189413283,22.35575519877857L230.62680194383114,18.327142529646306" style="fill:none;stroke:rgb(0,0,0);stroke-width:1;stroke-linecap:round"></path><path d="M-228.23500795791728,35.61863662098185L-228.23500795791728,64.68721053579546L-201.7921814635979,63.552702597300545z" style="fill:rgb(238,238,238); fill-opacity: 0.29"></path><path d="M155.78728427718585,22.355754893319663L155.78728427718585,39.79689924220783L230.62680531383592,18.327142774988417z" style="fill:rgb(255,255,255); fill-opacity: 0.4"></path><path d="M29.496018823599492,-3.922333254667996L29.496018823599492,141.42053631940004" style="fill:none;stroke:rgb(0,0,0);stroke-width:1;stroke-linecap:round"></path><path d="M126.08061409086221,36.53550378532463L131.3691793897261,42.122316980588366L131.3691793897261,24.681172631700203zM131.3691793897261,42.122316980588366L155.78728431073432,39.79689923901289L155.78728431073432,22.355754890124725zM131.3691793897261,24.681172631700203L155.78728431073432,22.355754890124725L126.08061409086221,19.094359436436463z" style="fill:rgb(153,221,255); fill-opacity: 0.4"></path><path d="M131.36917938972613,24.68117263170021L155.78728431073438,22.355754890124732M131.36917938972613,24.68117263170021L131.36917938972613,42.122316980588366" style="fill:none;stroke:rgb(0,0,0);stroke-width:1;stroke-linecap:round"></path><path d="M131.3691793897261,24.681172631700203L131.3691793897261,42.122316980588366L155.78728431073432,22.355754890124725z" style="fill:rgb(153,221,255); fill-opacity: 0.4"></path><path d="M-269.30863019956587,96.85933421939586L-304.56573219199174,59.613912917637585L-301.63007562693804,59.33434053142529zM-79.7904656013854,40.28340924681656L-43.16330821987305,36.79528263445335L-123.86184309191776,-6.27336738038127zM29.496018823599485,141.42053631940004L60.01864857502967,138.51376427574118L60.01864857502967,-6.829105298326829zM-266.37297363451216,96.57976183318357L-301.63007562693804,59.33434053142529L-301.63007562693804,44.800053574018484zM-159.06049925166357,88.55179559766756L-201.7921814635979,92.62127651211415L-185.50332574598298,60.61772962134887zM515.9462483822387,291.1909659240123L518.8819049472925,290.9113935378L518.8819049472925,-145.11721518440402zM-304.56573219199174,45.07962596023078L-304.56573219199174,59.613912917637585L-269.30863019956587,82.32504726198904zM141.49225113338292,179.77893849749594L165.91035605439117,177.45352075592047L165.91035605439117,-40.56078360518154zM-159.06049925166357,59.483221682853966L-159.06049925166357,88.55179559766756L-185.50332574598298,31.54915570653527zM-266.37297363451216,82.04547487577675L-301.63007562693804,44.800053574018484L-304.56573219199174,45.07962596023078zM247.38395792960353,218.71869504273303L265.69753662035976,216.9746317365514L265.69753662035976,-73.71110741158462zM-228.23500795791728,64.68721053579546L-201.7921814635979,92.62127651211415L-201.7921814635979,63.552702597300545zM347.1711385123463,258.23980602176647L359.38019097285047,257.0770971509787L359.38019097285047,-106.2800767841913zM-201.7921814635979,63.552702597300545L-159.06049925166357,59.483221682853966L-228.23500795791728,35.61863662098185z" style="fill:rgb(238,238,238); fill-opacity: 0.29"></path><path d="M-79.7904656013854,112.95484403385056L-43.16330821987305,109.46671742148736M-43.16330821987305,36.79528263445335L-43.16330821987305,109.46671742148736" style="fill:none;stroke:rgb(0,0,0);stroke-width:1;stroke-linecap:round"></path><path d="M29.496018823599485,-3.922333254667996L29.496018823599485,141.42053631940004L60.01864857502967,-6.829105298326829zM440.8537928816114,298.34227143459634L446.9583191118635,297.76091699920244L446.9583191118635,-138.26769172300158z" style="fill:rgb(238,238,238); fill-opacity: 0.29"></path><path d="M-201.7921814635979,92.62127651211415L-159.0604992516636,88.55179559766756M-159.0604992516636,59.483221682853966L-159.0604992516636,88.55179559766756M-79.7904656013854,40.28340924681656L-79.7904656013854,112.95484403385056" style="fill:none;stroke:rgb(0,0,0);stroke-width:1;stroke-linecap:round"></path><path d="M-79.7904656013854,112.95484403385056L-43.16330821987305,109.46671742148736L-43.16330821987305,36.79528263445335z" style="fill:rgb(238,238,238); fill-opacity: 0.29"></path><path d="M29.496018823599492,-3.922333254667996L60.01864857502965,-6.829105298326829" style="fill:none;stroke:rgb(0,0,0);stroke-width:1;stroke-linecap:round"></path><path d="M141.49225113338292,-38.23536586360607L141.49225113338292,179.77893849749594L165.91035605439117,-40.56078360518154z" style="fill:rgb(238,238,238); fill-opacity: 0.29"></path><path d="M-275.3214792244898,76.82512688905635L-207.07215360367064,52.88148535803962M-275.3214792244898,79.7319841072755L-207.07215360367064,52.88148535803962M-274.4400516746791,80.66311963981946L-207.07215360367064,52.88148535803962M-274.4400516746791,77.7562624216003L-207.07215360367064,52.88148535803962" style="fill:none;stroke:rgb(0,0,0);stroke-width:1;stroke-linecap:round"></path><path d="M-201.7921814635979,92.62127651211415L-159.06049925166357,88.55179559766756L-159.06049925166357,59.483221682853966z" style="fill:rgb(238,238,238); fill-opacity: 0.29"></path><path d="M-201.7921814635979,63.552702597300545L-159.0604992516636,59.483221682853966" style="fill:none;stroke:rgb(0,0,0);stroke-width:1;stroke-linecap:round"></path><path d="M-266.37297363451216,96.57976183318357L-269.30863019956587,96.85933421939586L-301.63007562693804,59.33434053142529z" style="fill:rgb(238,238,238); fill-opacity: 0.29"></path><path d="M-201.7921814635979,63.552702597300545L-201.7921814635979,92.62127651211415" style="fill:none;stroke:rgb(0,0,0);stroke-width:1;stroke-linecap:round"></path><path d="M-79.7904656013854,40.28340924681656L-79.7904656013854,112.95484403385056L-43.16330821987305,36.79528263445335zM-304.56573219199174,59.613912917637585L-269.30863019956587,96.85933421939586L-269.30863019956587,82.32504726198904zM-266.37297363451216,82.04547487577675L-266.37297363451216,96.57976183318357L-301.63007562693804,44.800053574018484z" style="fill:rgb(238,238,238); fill-opacity: 0.29"></path><path d="M-79.7904656013854,40.28340924681656L-43.16330821987305,36.79528263445335" style="fill:none;stroke:rgb(0,0,0);stroke-width:1;stroke-linecap:round"></path><path d="M-201.7921814635979,63.552702597300545L-201.7921814635979,92.62127651211415L-159.06049925166357,59.483221682853966zM-269.30863019956587,82.32504726198904L-266.37297363451216,82.04547487577675L-304.56573219199174,45.07962596023078zM247.38395792960353,-71.96704410540302L247.38395792960353,218.71869504273303L265.69753662035976,-73.71110741158462z" style="fill:rgb(238,238,238); fill-opacity: 0.29"></path><path d="M-275.32148459379886,79.73198472183269L-275.32148459379886,76.82512733035134L-207.07215878119402,52.88148661487596zM-274.44005704398825,80.66312025437664L-275.32148459379886,79.73198472183269L-207.07215878119402,52.88148661487596zM-275.32148459379886,76.82512733035134L-274.44005704398825,77.75626286289528L-207.07215878119402,52.88148661487596zM-274.44005704398825,77.75626286289528L-274.44005704398825,80.66312025437664L-207.07215878119402,52.88148661487596z" style="fill:rgb(255,255,255); fill-opacity: 0.4"></path><path d="M141.49225113338292,-38.23536586360606L165.91035605439117,-40.56078360518154" style="fill:none;stroke:rgb(0,0,0);stroke-width:1;stroke-linecap:round"></path><path d="M515.9462483822387,-144.83764279819172L515.9462483822387,291.1909659240123L518.8819049472925,-145.11721518440402z" style="fill:rgb(238,238,238); fill-opacity: 0.29"></path><path d="M-273.853656311272,76.68534113724519L-273.853656311272,79.59219852872654M-273.853656311272,79.59219852872654L-276.78931287632577,79.87177091493884M-273.853656311272,79.59219852872654L-272.97222876146134,80.5233340612705M-275.3214792244898,76.82512688905635L-275.3214792244898,79.7319841072755M-275.3214792244898,79.7319841072755L-274.4400516746791,80.66311963981946M-276.78931287632577,76.96491352345748L-276.78931287632577,79.87177091493884M-276.78931287632577,79.87177091493884L-275.9078853265151,80.8029064474828" style="fill:none;stroke:rgb(0,0,0);stroke-width:1;stroke-linecap:round"></path><path d="M-273.853656311272,79.59219852872654L-276.78931287632577,79.87177091493884L-276.78931287632577,76.96491352345748zM-273.853656311272,76.68534113724519L-273.853656311272,79.59219852872654L-276.78931287632577,76.96491352345748z" style="fill:rgb(153,221,255); fill-opacity: 0.4"></path><path d="M-273.853656311272,76.68534113724519L-276.78931287632577,76.96491352345748M-273.853656311272,76.68534113724519L-272.97222876146134,77.61647666978915" style="fill:none;stroke:rgb(0,0,0);stroke-width:1;stroke-linecap:round"></path><path d="M-272.97222876146134,80.52333406127049L-273.853656311272,79.59219852872654L-273.853656311272,76.68534113724519z" style="fill:rgb(153,221,255); fill-opacity: 0.4"></path><path d="M-275.3214792244898,76.82512688905635L-274.4400516746791,77.7562624216003" style="fill:none;stroke:rgb(0,0,0);stroke-width:1;stroke-linecap:round"></path><path d="M-275.9078853265151,80.80290644748278L-276.78931287632577,79.87177091493884L-273.853656311272,79.59219852872654z" style="fill:rgb(153,221,255); fill-opacity: 0.4"></path><path d="M-275.32148459379886,76.82512733035134L-275.32148459379886,79.73198472183269L-274.44005704398825,80.66312025437664z" style="fill:rgb(255,255,255); fill-opacity: 0.4"></path><path d="M-276.78931287632577,76.96491352345748L-275.9078853265151,77.89604905600144" style="fill:none;stroke:rgb(0,0,0);stroke-width:1;stroke-linecap:round"></path><path d="M-272.97222876146134,80.52333406127049L-275.9078853265151,80.80290644748278L-273.853656311272,79.59219852872654zM-272.97222876146134,77.61647666978914L-273.853656311272,76.68534113724519L-276.78931287632577,76.96491352345748zM-276.78931287632577,76.96491352345748L-276.78931287632577,79.87177091493884L-275.9078853265151,77.89604905600143zM-272.97222876146134,77.61647666978914L-272.97222876146134,80.52333406127049L-273.853656311272,76.68534113724519z" style="fill:rgb(153,221,255); fill-opacity: 0.4"></path><path d="M-275.9078853265151,80.8029064474828L-272.97222876146134,80.5233340612705M-272.97222876146134,77.61647666978915L-272.97222876146134,80.5233340612705" style="fill:none;stroke:rgb(0,0,0);stroke-width:1;stroke-linecap:round"></path><path d="M-275.32148459379886,76.82512733035134L-274.44005704398825,80.66312025437664L-274.44005704398825,77.75626286289528z" style="fill:rgb(255,255,255); fill-opacity: 0.4"></path><path d="M-276.78931287632577,79.87177091493884L-275.9078853265151,80.80290644748278L-275.9078853265151,77.89604905600143z" style="fill:rgb(153,221,255); fill-opacity: 0.4"></path><path d="M-274.4400516746791,80.66311963981946L-274.4400516746791,77.7562624216003" style="fill:none;stroke:rgb(0,0,0);stroke-width:1;stroke-linecap:round"></path><path d="M-275.9078853265151,77.89604905600143L-272.97222876146134,77.61647666978914L-276.78931287632577,76.96491352345748zM-275.9078853265151,80.80290644748278L-272.97222876146134,80.52333406127049L-272.97222876146134,77.61647666978914z" style="fill:rgb(153,221,255); fill-opacity: 0.4"></path><path d="M-275.9078853265151,77.89604905600144L-275.9078853265151,80.8029064474828M-275.9078853265151,77.89604905600144L-272.97222876146134,77.61647666978915" style="fill:none;stroke:rgb(0,0,0);stroke-width:1;stroke-linecap:round"></path><path d="M347.1711385123463,-105.11736791340358L347.1711385123463,258.23980602176647L359.38019097285047,-106.2800767841913z" style="fill:rgb(238,238,238); fill-opacity: 0.29"></path><path d="M-275.9078853265151,77.89604905600143L-275.9078853265151,80.80290644748278L-272.97222876146134,77.61647666978914z" style="fill:rgb(153,221,255); fill-opacity: 0.4"></path><path d="M247.38395792960353,-71.96704410540302L265.69753662035976,-73.71110741158462" style="fill:none;stroke:rgb(0,0,0);stroke-width:1;stroke-linecap:round"></path><path d="M440.8537928816114,-137.68633728760767L440.8537928816114,298.34227143459634L446.9583191118635,-138.26769172300158z" style="fill:rgb(238,238,238); fill-opacity: 0.29"></path><path d="M-269.30863019956587,96.85933421939586L-266.37297363451216,96.57976183318357M-266.37297363451216,82.04547487577676L-266.37297363451216,96.57976183318357M-269.30863019956587,82.32504726198906L-269.30863019956587,96.85933421939586" style="fill:none;stroke:rgb(0,0,0);stroke-width:1;stroke-linecap:round"></path><path d="M-269.30863019956587,96.85933421939586L-266.37297363451216,96.57976183318357L-266.37297363451216,82.04547487577675zM-269.30863019956587,82.32504726198904L-269.30863019956587,96.85933421939586L-266.37297363451216,82.04547487577675z" style="fill:rgb(238,238,238); fill-opacity: 0.29"></path><path d="M-269.30863019956587,82.32504726198906L-266.37297363451216,82.04547487577676M347.1711385123464,-105.11736791340356L359.38019097285047,-106.28007678419131M515.9462483822385,-144.83764279819172L518.8819049472924,-145.11721518440402M440.8537928816114,-137.68633728760767L446.95831911186343,-138.26769172300152" style="fill:none;stroke:rgb(0,0,0);stroke-width:1;stroke-linecap:round"></path></svg>